<?xml version="1.0" standalone="no"?>
<!DOCTYPE svg PUBLIC "-//W3C//DTD SVG 20010904//EN"
 "http://www.w3.org/TR/2001/REC-SVG-20010904/DTD/svg10.dtd">
<svg version="1.0" xmlns="http://www.w3.org/2000/svg"
 width="480.000000pt" height="480.000000pt" viewBox="0 0 480.000000 480.000000"
 preserveAspectRatio="xMidYMid meet">

<g transform="translate(0.000000,480.000000) scale(0.100000,-0.100000)"
fill="#000000" stroke="none">
<path d="M435 3680 c-3 -5 10 -83 30 -172 19 -90 54 -246 76 -348 22 -102 60
-273 84 -380 24 -107 76 -339 115 -515 38 -176 80 -360 92 -410 l23 -90 430 0
430 0 44 84 43 83 -88 -71 c-71 -57 -94 -70 -114 -66 -14 3 -74 12 -135 20
-60 8 -168 23 -240 35 -71 11 -135 20 -141 20 -6 0 -36 53 -66 118 -55 114
-57 122 -88 317 -17 110 -40 250 -51 310 -23 132 -88 509 -120 691 -12 73 -20
138 -16 146 3 9 25 17 54 21 26 3 108 15 181 27 142 22 273 42 587 90 110 17
254 39 320 50 66 10 153 24 193 30 39 7 72 14 72 16 0 9 -1709 4 -1715 -6z"/>
<path d="M1550 3256 c0 -8 -9 -44 -21 -82 -34 -109 -106 -159 -144 -100 -14
21 -14 30 -1 87 8 35 18 72 22 82 6 16 3 18 -17 15 -20 -2 -27 -13 -41 -63
-35 -126 -16 -175 65 -175 83 0 135 60 170 193 l15 57 -24 0 c-14 0 -24 -6
-24 -14z"/>
<path d="M2233 3251 c-126 -43 -190 -143 -128 -201 20 -19 40 -25 90 -28 53
-4 65 -2 65 11 0 10 -14 16 -50 19 -60 6 -80 21 -80 61 0 40 56 92 118 110 28
9 48 21 50 31 4 20 0 20 -65 -3z"/>
<path d="M1790 3242 c0 -10 -13 -62 -29 -115 l-29 -97 41 0 c89 0 159 62 128
113 -11 16 -9 22 8 38 26 25 27 55 2 69 -11 5 -42 10 -70 10 -43 0 -51 -3 -51
-18z m95 -32 c0 -16 -50 -48 -61 -38 -3 4 -3 19 0 33 5 21 12 26 34 23 16 -2
27 -9 27 -18z m-24 -86 c11 -14 10 -20 -14 -40 -48 -41 -69 -28 -47 30 11 30
41 34 61 10z"/>
<path d="M1597 3050 c-4 -16 0 -20 23 -20 19 0 29 6 33 20 4 16 0 20 -23 20
-19 0 -29 -6 -33 -20z"/>
<path d="M1957 3050 c-4 -16 0 -20 23 -20 19 0 29 6 33 20 4 16 0 20 -23 20
-19 0 -29 -6 -33 -20z"/>
<path d="M2310 3050 c0 -25 45 -28 54 -4 9 23 8 24 -24 24 -23 0 -30 -4 -30
-20z"/>
<path d="M1503 2826 c-68 -84 -88 -117 -80 -125 17 -17 22 -14 52 29 27 39 29
40 85 40 l57 0 12 -40 c12 -42 17 -45 40 -31 12 8 13 16 2 53 -25 83 -64 188
-70 188 -4 0 -48 -51 -98 -114z m97 5 l9 -31 -41 0 c-44 0 -44 -1 1 53 17 20
19 19 31 -22z"/>
<path d="M2123 2928 c-65 -101 -128 -224 -119 -230 20 -14 24 -9 70 74 43 79
45 81 55 56 5 -14 13 -42 16 -62 4 -20 11 -38 15 -41 4 -3 32 24 61 59 30 36
57 65 61 65 3 1 9 -33 13 -74 8 -79 12 -89 35 -75 12 7 12 25 1 117 -7 59 -15
110 -18 113 -5 5 -13 -3 -85 -90 -43 -51 -48 -49 -68 36 -14 59 -24 72 -37 52z"/>
<path d="M2586 2829 c-20 -60 -36 -114 -36 -120 0 -5 9 -9 20 -9 15 0 23 12
35 58 33 118 24 116 94 24 34 -45 66 -82 71 -82 5 0 19 33 31 73 11 39 27 91
34 115 14 41 13 42 -10 42 -21 0 -25 -7 -40 -75 -9 -41 -20 -75 -24 -75 -4 0
-34 36 -66 80 -32 44 -62 80 -66 80 -4 0 -24 -50 -43 -111z"/>
<path d="M3195 2923 c-66 -34 -96 -80 -97 -145 -2 -135 225 -104 272 37 14 42
7 78 -20 105 -25 25 -111 27 -155 3z m117 -30 c53 -48 -27 -173 -111 -173 -27
0 -61 34 -61 60 0 90 115 165 172 113z"/>
<path d="M3461 2898 c-6 -24 -22 -78 -35 -120 l-24 -78 23 0 c20 0 25 8 39 68
10 37 20 73 25 80 5 8 29 -18 71 -73 35 -47 66 -82 70 -78 7 7 70 215 70 228
0 3 -9 5 -19 5 -15 0 -23 -13 -36 -57 -29 -107 -25 -106 -91 -15 -32 45 -64
82 -70 82 -7 0 -17 -19 -23 -42z"/>
<path d="M1285 2918 c-6 -18 -55 -209 -55 -214 0 -2 17 -4 38 -4 87 0 176 81
127 116 -18 14 -18 14 3 34 24 23 28 50 10 68 -16 16 -117 16 -123 0z m81 -23
c19 -15 19 -15 -5 -35 -24 -21 -51 -27 -51 -11 0 18 20 61 28 61 4 0 17 -7 28
-15z m-8 -112 c3 -18 -5 -27 -32 -40 -20 -9 -38 -14 -41 -12 -2 3 0 22 6 43 9
32 14 37 37 34 19 -2 28 -10 30 -25z"/>
<path d="M1806 2919 c-17 -50 -55 -213 -52 -217 3 -2 29 -1 58 2 137 18 245
140 177 202 -27 24 -176 35 -183 13z m137 -33 c29 -22 21 -64 -19 -101 -32
-29 -106 -60 -117 -48 -3 2 4 40 15 83 l20 80 42 0 c22 0 49 -7 59 -14z"/>
<path d="M2437 2825 c-32 -125 -32 -125 -7 -125 13 0 22 9 26 28 4 15 17 66
30 115 l23 87 -23 0 c-20 0 -25 -10 -49 -105z"/>
<path d="M2890 2915 c0 -11 12 -15 46 -15 38 0 45 -3 40 -16 -7 -19 -46 -170
-46 -179 0 -3 10 -5 22 -3 19 3 25 17 46 101 l24 97 49 0 c37 0 49 4 49 15 0
12 -19 15 -115 15 -96 0 -115 -3 -115 -15z"/>
<path d="M1354 2621 c-146 -50 -221 -171 -133 -216 39 -21 139 -20 139 0 0 11
-11 15 -43 15 -49 0 -87 22 -87 51 0 10 16 37 36 59 27 30 52 45 98 59 38 11
62 25 64 35 4 20 -9 19 -74 -3z"/>
<path d="M1864 2588 c-37 -115 -80 -168 -134 -168 -54 0 -52 54 5 193 6 13 2
17 -18 17 -22 0 -27 -9 -51 -80 -14 -43 -26 -90 -26 -103 0 -36 30 -57 82 -57
56 0 118 42 147 99 17 32 61 140 61 149 0 1 -11 2 -24 2 -21 0 -27 -8 -42 -52z"/>
<path d="M1503 2613 c-3 -10 -23 -62 -44 -117 -22 -54 -39 -100 -39 -103 0
-11 134 3 138 15 2 8 -9 12 -38 12 -48 0 -48 -7 5 128 l33 82 -24 0 c-14 0
-27 -7 -31 -17z"/>
<path d="M1975 2528 c-21 -57 -40 -109 -43 -115 -6 -19 69 -17 118 3 25 10 47
28 56 46 14 27 14 32 -1 48 -14 16 -14 18 10 34 34 22 34 63 -1 76 -14 6 -42
10 -63 10 l-38 0 -38 -102z m120 52 c0 -17 -50 -48 -61 -37 -4 4 -2 18 4 33 9
18 19 24 35 22 12 -2 22 -10 22 -18z m-39 -85 c19 -15 18 -16 -9 -40 -39 -34
-61 -33 -52 2 7 29 23 53 34 53 4 0 16 -7 27 -15z"/>
<path d="M1045 1610 c16 -7 507 -60 553 -60 9 0 12 -30 12 -115 0 -139 -19
-200 -86 -274 -62 -69 -128 -99 -244 -112 -167 -19 -290 18 -375 113 -53 59
-57 54 -14 -14 159 -247 504 -279 707 -65 95 101 122 186 122 388 l0 136 -77
7 c-115 9 -622 6 -598 -4z"/>
</g>
</svg>
